<svg xmlns="http://www.w3.org/2000/svg" width="900" height="1100" viewBox="0 0 900 1100">
<rect x="12" y="12" width="708" height="1076" rx="0" fill="#E8D5AE" /><line x1="72" y1="12" x2="72" y2="1088" stroke="#D9C298" stroke-width="2" opacity="0.55"/><line x1="132" y1="12" x2="132" y2="1088" stroke="#D9C298" stroke-width="2" opacity="0.55"/><line x1="192" y1="12" x2="192" y2="1088" stroke="#D9C298" stroke-width="2" opacity="0.55"/><line x1="252" y1="12" x2="252" y2="1088" stroke="#D9C298" stroke-width="2" opacity="0.55"/><line x1="312" y1="12" x2="312" y2="1088" stroke="#D9C298" stroke-width="2" opacity="0.55"/><line x1="372" y1="12" x2="372" y2="1088" stroke="#D9C298" stroke-width="2" opacity="0.55"/><line x1="432" y1="12" x2="432" y2="1088" stroke="#D9C298" stroke-width="2" opacity="0.55"/><line x1="492" y1="12" x2="492" y2="1088" stroke="#D9C298" stroke-width="2" opacity="0.55"/><line x1="552" y1="12" x2="552" y2="1088" stroke="#D9C298" stroke-width="2" opacity="0.55"/><line x1="612" y1="12" x2="612" y2="1088" stroke="#D9C298" stroke-width="2" opacity="0.55"/><line x1="672" y1="12" x2="672" y2="1088" stroke="#D9C298" stroke-width="2" opacity="0.55"/><line x1="12" y1="132" x2="720" y2="132" stroke="#D9C298" stroke-width="1.4" opacity="0.35"/><line x1="12" y1="282" x2="720" y2="282" stroke="#D9C298" stroke-width="1.4" opacity="0.35"/><line x1="12" y1="432" x2="720" y2="432" stroke="#D9C298" stroke-width="1.4" opacity="0.35"/><line x1="12" y1="582" x2="720" y2="582" stroke="#D9C298" stroke-width="1.4" opacity="0.35"/><line x1="12" y1="732" x2="720" y2="732" stroke="#D9C298" stroke-width="1.4" opacity="0.35"/><line x1="12" y1="882" x2="720" y2="882" stroke="#D9C298" stroke-width="1.4" opacity="0.35"/><line x1="12" y1="1032" x2="720" y2="1032" stroke="#D9C298" stroke-width="1.4" opacity="0.35"/><rect x="750" y="12" width="138" height="1076" rx="0" fill="#D7E2E8" /><line x1="750" y1="60" x2="888" y2="60" stroke="#C4D4DC" stroke-width="2" opacity="0.6"/><line x1="750" y1="150" x2="888" y2="150" stroke="#C4D4DC" stroke-width="2" opacity="0.6"/><line x1="750" y1="240" x2="888" y2="240" stroke="#C4D4DC" stroke-width="2" opacity="0.6"/><line x1="750" y1="330" x2="888" y2="330" stroke="#C4D4DC" stroke-width="2" opacity="0.6"/><line x1="750" y1="420" x2="888" y2="420" stroke="#C4D4DC" stroke-width="2" opacity="0.6"/><line x1="750" y1="510" x2="888" y2="510" stroke="#C4D4DC" stroke-width="2" opacity="0.6"/><line x1="750" y1="600" x2="888" y2="600" stroke="#C4D4DC" stroke-width="2" opacity="0.6"/><line x1="750" y1="690" x2="888" y2="690" stroke="#C4D4DC" stroke-width="2" opacity="0.6"/><line x1="750" y1="780" x2="888" y2="780" stroke="#C4D4DC" stroke-width="2" opacity="0.6"/><line x1="750" y1="870" x2="888" y2="870" stroke="#C4D4DC" stroke-width="2" opacity="0.6"/><line x1="750" y1="960" x2="888" y2="960" stroke="#C4D4DC" stroke-width="2" opacity="0.6"/><line x1="750" y1="1050" x2="888" y2="1050" stroke="#C4D4DC" stroke-width="2" opacity="0.6"/><rect x="750" y="12" width="138" height="10" rx="0" fill="#9FB4C0" opacity="0.5"/><rect x="12" y="12" width="708" height="84" rx="0" fill="#F2E8D5" /><rect x="12" y="90" width="708" height="8" rx="0" fill="#DCCFB2" /><rect x="140" y="18" width="400" height="66" rx="6" fill="#8A6844" /><rect x="150" y="27" width="380" height="48" rx="4" fill="#3F6B5E" /><line x1="170" y1="40" x2="500" y2="40" stroke="#FFFFFF" stroke-width="2" opacity="0.18"/><line x1="170" y1="52" x2="430" y2="52" stroke="#FFFFFF" stroke-width="2" opacity="0.12"/><circle cx="600" cy="50" r="20" fill="#F4EAD2" stroke="#8A6844" stroke-width="4"/><line x1="600" y1="50" x2="600" y2="38" stroke="#4A3F35" stroke-width="2.4" /><line x1="600" y1="50" x2="609" y2="54" stroke="#4A3F35" stroke-width="2.4" /><rect x="270" y="112" width="180" height="70" rx="8" fill="#B98A5A" stroke="#8A6844" stroke-width="3"/><rect x="270" y="158" width="180" height="24" rx="6" fill="#8A6844" opacity="0.6"/><rect x="292" y="124" width="60" height="8" rx="3" fill="#F2E4C0" opacity="0.8"/><rect x="20" y="120" width="66" height="190" rx="4" fill="#8A6844" /><rect x="26" y="130" width="54" height="22" rx="2" fill="#D75A4C" opacity="0.85"/><rect x="26" y="164" width="54" height="22" rx="2" fill="#46618C" opacity="0.85"/><rect x="26" y="198" width="54" height="22" rx="2" fill="#3F6B5E" opacity="0.85"/><rect x="26" y="232" width="54" height="22" rx="2" fill="#EAC857" opacity="0.85"/><rect x="26" y="266" width="54" height="22" rx="2" fill="#5F79A0" opacity="0.85"/><rect x="560" y="108" width="130" height="80" rx="6" fill="#EDF2F7" stroke="#8A6844" stroke-width="3"/><line x1="575" y1="128" x2="675" y2="128" stroke="#9FB4C0" stroke-width="2.4" /><line x1="575" y1="146" x2="660" y2="146" stroke="#9FB4C0" stroke-width="2.4" /><line x1="575" y1="164" x2="685" y2="164" stroke="#9FB4C0" stroke-width="2.4" /><rect x="690" y="1020" width="26" height="20" rx="4" fill="#B98A5A" stroke="#8A6844" stroke-width="2"/><ellipse cx="703" cy="1000" rx="20" ry="26" fill="#4C7A57" /><ellipse cx="695" cy="988" rx="9" ry="16" fill="#5C8F66" /><ellipse cx="712" cy="994" rx="9" ry="15" fill="#3E6849" /><rect x="715" y="160" width="22" height="85" rx="3" fill="#8A6844" /><rect x="719" y="166" width="14" height="73" rx="2" fill="#A57C4E" /><circle cx="728" cy="202.5" r="2.6" fill="#EAC857" /><rect x="716" y="310" width="20" height="95" rx="3" fill="#F4F7F8" /><rect x="719" y="315" width="14" height="85" rx="2" fill="#AFE0EE" /><line x1="719" y1="357.5" x2="733" y2="357.5" stroke="#FFFFFF" stroke-width="2" opacity="0.8"/><rect x="716" y="500" width="20" height="105" rx="3" fill="#F4F7F8" /><rect x="719" y="505" width="14" height="95" rx="2" fill="#AFE0EE" /><line x1="719" y1="552.5" x2="733" y2="552.5" stroke="#FFFFFF" stroke-width="2" opacity="0.8"/><rect x="716" y="685" width="20" height="105" rx="3" fill="#F4F7F8" /><rect x="719" y="690" width="14" height="95" rx="2" fill="#AFE0EE" /><line x1="719" y1="737.5" x2="733" y2="737.5" stroke="#FFFFFF" stroke-width="2" opacity="0.8"/><rect x="715" y="875" width="22" height="140" rx="3" fill="#8A6844" /><rect x="719" y="881" width="14" height="128" rx="2" fill="#A57C4E" /><circle cx="728" cy="945" r="2.6" fill="#EAC857" /><line x1="730" y1="12" x2="730" y2="160" stroke="#4A4038" stroke-width="7" stroke-linecap="square"/><line x1="730" y1="245" x2="730" y2="310" stroke="#4A4038" stroke-width="7" stroke-linecap="square"/><line x1="730" y1="405" x2="730" y2="500" stroke="#4A4038" stroke-width="7" stroke-linecap="square"/><line x1="730" y1="605" x2="730" y2="685" stroke="#4A4038" stroke-width="7" stroke-linecap="square"/><line x1="730" y1="790" x2="730" y2="875" stroke="#4A4038" stroke-width="7" stroke-linecap="square"/><line x1="730" y1="1015" x2="730" y2="1088" stroke="#4A4038" stroke-width="7" stroke-linecap="square"/><line x1="12" y1="12" x2="12" y2="1088" stroke="#4A4038" stroke-width="7" stroke-linecap="square"/><line x1="12" y1="12" x2="888" y2="12" stroke="#4A4038" stroke-width="7" stroke-linecap="square"/><line x1="12" y1="1088" x2="888" y2="1088" stroke="#4A4038" stroke-width="7" stroke-linecap="square"/><line x1="888" y1="12" x2="888" y2="1088" stroke="#4A4038" stroke-width="7" stroke-linecap="square"/><rect x="876" y="180" width="8" height="34" rx="3" fill="#B98A5A" stroke="#8A6844" stroke-width="1.6"/><ellipse cx="880" cy="174" rx="10" ry="12" fill="#4C7A57" /><rect x="876" y="460" width="8" height="34" rx="3" fill="#B98A5A" stroke="#8A6844" stroke-width="1.6"/><ellipse cx="880" cy="454" rx="10" ry="12" fill="#4C7A57" /><rect x="876" y="740" width="8" height="34" rx="3" fill="#B98A5A" stroke="#8A6844" stroke-width="1.6"/><ellipse cx="880" cy="734" rx="10" ry="12" fill="#4C7A57" /><rect x="876" y="960" width="8" height="34" rx="3" fill="#B98A5A" stroke="#8A6844" stroke-width="1.6"/><ellipse cx="880" cy="954" rx="10" ry="12" fill="#4C7A57" />
</svg>
