<svg xmlns="http://www.w3.org/2000/svg" width="400" height="220" viewBox="0 0 400 220">
  <defs>
    <filter id="shadow" x="-20%" y="-20%" width="140%" height="150%"><feDropShadow dx="0" dy="5" stdDeviation="4" flood-color="#243444" flood-opacity=".2"/></filter>
  </defs>
  <ellipse cx="200" cy="202" rx="154" ry="10" fill="#8A6844" opacity=".12"/>
  <path d="M60 68h128q12 0 12 13v117H64q-12 0-12-12V80q0-12 8-12Z" fill="#FAF5E9" stroke="#8A6844" stroke-width="4" filter="url(#shadow)"/>
  <path d="M340 68H212q-12 0-12 13v117h136q12 0 12-12V80q0-12-8-12Z" fill="#F5EBD7" stroke="#8A6844" stroke-width="4" filter="url(#shadow)"/>
  <path d="M200 80v119" stroke="#C89B6B" stroke-width="5"/>
  <path d="M74 111h95M74 135h87M74 159h96M230 112h96M230 137h80M230 162h92" stroke="#A9C7C0" stroke-width="3" stroke-linecap="round" opacity=".72"/>
  <path d="M81 47l34-17 15 46-34 10Z" fill="#EAC857" stroke="#8A6844" stroke-width="3"/>
  <path d="M92 73l10 20 8-24" fill="#F6F0E4" stroke="#8A6844" stroke-width="2"/>
  <circle cx="201" cy="73" r="50" fill="#243444" stroke="#EAC857" stroke-width="7"/>
  <circle cx="201" cy="73" r="37" fill="#F6F0E4"/>
  <path d="M201 47v29l22 12" fill="none" stroke="#243444" stroke-width="6" stroke-linecap="round" stroke-linejoin="round"/>
  <circle cx="201" cy="73" r="5" fill="#D75A4C"/>
  <path d="M180 14h42" stroke="#243444" stroke-width="8" stroke-linecap="round"/>
  <path d="M294 47c9-18 29-19 39-3 5 8 3 20-4 27-12 13-33 5-35-11" fill="#D75A4C" stroke="#8A6844" stroke-width="3"/>
  <path d="M313 52c3-12 9-17 18-18" fill="none" stroke="#F6F0E4" stroke-width="3" stroke-linecap="round"/>
  <path d="M339 46c8-5 15-3 19 4-7 4-13 4-19-4Z" fill="#4C9A6A"/>
  <path d="M34 51l4-10 4 10 10 4-10 4-4 10-4-10-10-4ZM361 101l3-8 3 8 8 3-8 3-3 8-3-8-8-3Z" fill="#EAC857"/>
</svg>
