<svg xmlns="http://www.w3.org/2000/svg" width="72" height="96" viewBox="0 0 72 96">
<ellipse cx="36" cy="87" rx="17" ry="5.5" fill="#243444" opacity="0.16"/><g transform="translate(0 -1.20)">
<rect x="23" y="76" width="10" height="10" rx="4" fill="#4A3F35" /><rect x="39" y="78" width="10" height="8" rx="4" fill="#4A3F35" /><rect x="21" y="36" width="30" height="42" rx="11" fill="#41607F" stroke="#334C66" stroke-width="2"/><rect x="21" y="40" width="30" height="5" rx="2.5" fill="#334C66" opacity="0.55"/><rect x="14" y="40" width="8" height="24.200000000000003" rx="4" fill="#334C66" /><rect x="50" y="40" width="8" height="22" rx="4" fill="#334C66" /><circle cx="18" cy="66.2" r="4.2" fill="#F2CBA4" /><circle cx="54" cy="64" r="4.2" fill="#F2CBA4" /><circle cx="36" cy="22" r="13.5" fill="#F2CBA4" stroke="#D9AE85" stroke-width="1.5"/><circle cx="36" cy="22" r="13.5" fill="#26303A" /><path d="M 27 16 A 10 10 0 0 1 43 14" fill="none" stroke="#FFFFFF" stroke-width="2" opacity="0.25"/><rect x="27" y="36" width="18" height="3" rx="1.5" fill="#334C66" opacity="0.9"/><rect x="48" y="48" width="14" height="10" rx="2" fill="#D8E2EA" stroke="#334C66" stroke-width="1.4"/><rect x="48" y="48" width="14" height="3" rx="1.5" fill="#B9C9D6" />
</g>
</svg>
